[Header]
FileType HTR
DataType HTRS
FileVersion 1
NumSegments 81
NumFrames 2
DataFrameRate 30
EulerRotationOrder ZYX
CalibrationUnits mm
RotationUnits Degrees
GlobalAxisofGravity Y
BoneLengthAxis Y
ScaleFactor 1.0
[SegmentNames&Hierarchy]
Hips	GLOBAL
LeftUpLeg	Hips
LeftLeg	LeftUpLeg
LeftFoot	LeftLeg
LeftToeBase	LeftFoot
LeftToeEnd	LeftToeBase
LeftLegRoll	LeftLeg
LeftUpLegRoll	LeftUpLeg
Spine	Hips
Spine1	Spine
Spine2	Spine1
LeftShoulder	Spine2
LeftArm	LeftShoulder
LeftForeArm	LeftArm
LeftForeArmRoll	LeftForeArm
LeftHand	LeftForeArm
LeftHandThumb1	LeftHand
LeftHandThumb2	LeftHandThumb1
LeftHandThumb3	LeftHandThumb2
LeftHandThumb4	LeftHandThumb3
LeftHandIndex1	LeftHand
LeftHandIndex2	LeftHandIndex1
LeftHandIndex3	LeftHandIndex2
LeftHandIndex4	LeftHandIndex3
LeftHandMiddle1	LeftHand
LeftHandMiddle2	LeftHandMiddle1
LeftHandMiddle3	LeftHandMiddle2
LeftHandMiddle4	LeftHandMiddle3
LeftHandRing1	LeftHand
LeftHandRing2	LeftHandRing1
LeftHandRing3	LeftHandRing2
LeftHandRing4	LeftHandRing3
LeftHandPinky1	LeftHand
LeftHandPinky2	LeftHandPinky1
LeftHandPinky3	LeftHandPinky2
LeftHandPinky4	LeftHandPinky3
LH_WP	LeftHand
LeftArmRoll	LeftArm
RightShoulder	Spine2
RightArm	RightShoulder
RightForeArm	RightArm
RightHand	RightForeArm
RightHandThumb1	RightHand
RightHandThumb2	RightHandThumb1
RightHandThumb3	RightHandThumb2
RightHandThumb4	RightHandThumb3
RightHandIndex1	RightHand
RightHandIndex2	RightHandIndex1
RightHandIndex3	RightHandIndex2
RightHandIndex4	RightHandIndex3
RightHandMiddle1	RightHand
RightHandMiddle2	RightHandMiddle1
RightHandMiddle3	RightHandMiddle2
RightHandMiddle4	RightHandMiddle3
RightHandRing1	RightHand
RightHandRing2	RightHandRing1
RightHandRing3	RightHandRing2
RightHandRing4	RightHandRing3
RightHandPinky1	RightHand
RightHandPinky2	RightHandPinky1
RightHandPinky3	RightHandPinky2
RightHandPinky4	RightHandPinky3
RH_WP	RightHand
RightForeArmRoll	RightForeArm
RightArmRoll	RightArm
Neck	Spine2
Neck1	Neck
Head	Neck1
Jaw	Head
L_Eye	Head
R_Eye_Socket	Head
L_Eye_Socket	Head
R_Eye	Head
BK_WEP1	Spine2
RightUpLeg	Hips
RightLeg	RightUpLeg
RightFoot	RightLeg
RightToeBase	RightFoot
RightToeEnd	RightToeBase
RightLegRoll	RightLeg
RightUpLegRoll	RightUpLeg
[BasePosition]
Hips	0	0	0	-90	-0	90	1
LeftUpLeg	0	0	0	0.1245552539	2.943081661	177.8888274	1
LeftLeg	0	0	0	-1.553056268e-018	-0.4645708947	-3.190265207	1
LeftFoot	0	0	0	-3.427050049	1.138743235	66.87228657	1
LeftToeBase	0	0	0	-0.1150285401	1.405135968	23.664964	1
LeftToeEnd	0	0	0	0	86.14893154	4.67902715	1
LeftLegRoll	0	0	0	0	-0.0003937979005	-0.0001763048027	1
LeftUpLegRoll	0	0	0	-7.231744079e-028	1.685187608e-005	2.666244888e-005	1
Spine	0	0	0	0	0	-3.518269458	1
Spine1	0	0	0	0	-0	7.885175398	1
Spine2	0	0	0	0	0	-0.09285174208	1
LeftShoulder	0	0	0	160.7860865	59.06322903	63.61338722	1
LeftArm	0	0	0	2.904619295	-26.91541272	-17.55355673	1
LeftForeArm	0	0	0	-90.22254753	-4.753527924	8.383736267	1
LeftForeArmRoll	0	0	0	0	0	0	1
LeftHand	0	0	0	90	-0	0	1
LeftHandThumb1	0	0	0	108.0365432	-19.14265923	-11.8633769	1
LeftHandThumb2	0	0	0	-15.63070336	0.2480216413	-4.679087203	1
LeftHandThumb3	0	0	0	-0.5621291509	1.199440794	-4.464397336	1
LeftHandThumb4	0	0	0	0	0	0	1
LeftHandIndex1	0	0	0	-0.1287480184	2.273223042	-5.916767355	1
LeftHandIndex2	0	0	0	0	0	0	1
LeftHandIndex3	0	0	0	0	0	0	1
LeftHandIndex4	0	0	0	0.06487671692	1.045318787	6.79153565	1
LeftHandMiddle1	0	0	0	-0.1873173809	2.298574433	-7.334490242	1
LeftHandMiddle2	0	0	0	0	0	0	1
LeftHandMiddle3	0	0	0	0	0	0	1
LeftHandMiddle4	0	0	0	0.1011317606	1.031425995	10.25668623	1
LeftHandRing1	0	0	0	-0.2038904391	2.187828672	-7.999827968	1
LeftHandRing2	0	0	0	0	0	0	1
LeftHandRing3	0	0	0	0	0	0	1
LeftHandRing4	0	0	0	0.1270826821	1.220105684	11.26838389	1
LeftHandPinky1	0	0	0	-0.1150589234	1.798482907	-6.335472682	1
LeftHandPinky2	0	0	0	0	0	0	1
LeftHandPinky3	0	0	0	0	0	0	1
LeftHandPinky4	0	0	0	0.09523892401	1.784551098	6.714729621	1
LH_WP	0	0	0	4.792186366e-012	2.776477095	-2.674328027	1
LeftArmRoll	0	0	0	0	2.176196996e-005	0	1
RightShoulder	0	0	0	160.7860865	59.06322903	-116.3866128	1
RightArm	0	0	0	2.904619295	-26.91541272	-17.55355673	1
RightForeArm	0	0	0	-90.22254753	-4.753527924	8.383736267	1
RightHand	0	0	0	90	-0	0	1
RightHandThumb1	0	0	0	108.0365432	-19.14265923	-11.8633769	1
RightHandThumb2	0	0	0	-15.63070336	0.2480216413	-4.679087203	1
RightHandThumb3	0	0	0	-0.5621291509	1.199440794	-4.464397336	1
RightHandThumb4	0	0	0	1.20741827e-006	-0	0	1
RightHandIndex1	0	0	0	-0.1287480183	2.273223042	-5.916767355	1
RightHandIndex2	0	0	0	0	0	0	1
RightHandIndex3	0	0	0	0	0	0	1
RightHandIndex4	0	0	0	0.06487671641	1.045318787	6.79153565	1
RightHandMiddle1	0	0	0	-0.187317381	2.298574433	-7.334490242	1
RightHandMiddle2	0	0	0	0	0	0	1
RightHandMiddle3	0	0	0	0	0	0	1
RightHandMiddle4	0	0	0	0.1011317605	1.031425995	10.25668623	1
RightHandRing1	0	0	0	-0.2038904391	2.187828672	-7.999827968	1
RightHandRing2	0	0	0	0	0	0	1
RightHandRing3	0	0	0	0	0	0	1
RightHandRing4	0	0	0	0.1270826818	1.220105684	11.26838389	1
RightHandPinky1	0	0	0	-0.1150589234	1.798482907	-6.335472682	1
RightHandPinky2	0	0	0	0	0	0	1
RightHandPinky3	0	0	0	0	0	0	1
RightHandPinky4	0	0	0	0.09523892401	1.784551098	6.714729621	1
RH_WP	0	0	0	4.903613047e-012	2.776477095	-2.674328027	1
RightForeArmRoll	0	0	0	0	0	0	1
RightArmRoll	0	0	0	0	2.17619649e-005	0	1
Neck	0	0	0	-0.5911792768	-0.1801087749	-21.21735117	1
Neck1	0	0	0	0.6101271651	0.09836090716	7.78649821	1
Head	0	0	0	0	-0	9.996624533	1
Jaw	0	0	0	-0.06946325017	0.08775954594	-129.2006421	1
L_Eye	0	0	0	90.83837297	89.99999895	0	1
R_Eye_Socket	0	0	0	90.83837297	89.99999895	0	1
L_Eye_Socket	0	0	0	90.83837262	89.99999895	0	1
R_Eye	0	0	0	90.83837262	89.99999895	0	1
BK_WEP1	0	0	0	94.2740542	90	0	1
RightUpLeg	0	0	0	0.1245552539	2.943081661	-2.111172621	1
RightLeg	0	0	0	1.770668338e-011	-0.4645708947	-3.190265207	1
RightFoot	0	0	0	-3.427050049	1.138743235	66.87228657	1
RightToeBase	0	0	0	-0.1150285401	1.405135968	23.664964	1
RightToeEnd	0	0	0	-4.55797616e-013	86.14893154	4.67902715	1
RightLegRoll	0	0	0	0.0001763058084	-5.425123434e-010	1.211761319e-009	1
RightUpLegRoll	0	0	0	2.663171688e-005	1.239300521e-011	-7.832936944e-012	1
[Hips]
14	-38.07062912	923.0762329	3037.68457	10.05667877	-1.156026363	-4.237007618	1.0
15	-40.06357193	911.777832	3228.467773	16.06480217	-2.812872171	-5.322063923	1.0
[LeftUpLeg]
14	-47.72188187	-9.041601181	-88.56562805	-14.08382988	-8.903384209	42.06546402	1.0
15	-47.72195435	-9.041627884	-88.56562805	-19.30463791	-11.78067493	41.859375	1.0
[LeftLeg]
14	428.657196	0.0001382785413	-0.000176447953	7.71731472	3.580930233	-27.47501945	1.0
15	428.657196	0.0001165901485	-0.000176447953	7.769048214	7.686223984	-45.28533936	1.0
[LeftFoot]
14	444.4223022	-0.04059128836	0.8616406918	0.2904360294	-4.661348343	7.860902786	1.0
15	444.4224243	-0.05366604775	0.8313105106	12.93306541	-0.5915151834	9.675207138	1.0
[LeftToeBase]
14	155.2784576	1.45376689e-005	6.297896562e-006	0.000607559632	-0.0008815125329	-0.003902407363	1.0
15	155.2785339	-7.438422926e-006	6.297896562e-006	0.002980274614	-0.0006274536718	-0.03923227638	1.0
[LeftToeEnd]
14	87.1754837	4.440892099e-015	-1.243449788e-013	0	0	0	1.0
15	87.1754837	4.440892099e-015	-1.243449788e-013	0	0	0	1.0
[LeftLegRoll]
14	198.5738983	6.46289991e-005	7.328816537e-006	4.014365196	-0.2005967796	-0.009459227324	1.0
15	198.5738983	-0.0001706086041	7.328816537e-006	3.628338099	-0.1935291737	-0.01243003272	1.0
[LeftUpLegRoll]
14	166.7198334	0.0001043974626	-6.571605809e-006	2.000703887e-007	1.379017613e-005	1.322874255e-006	1.0
15	166.7199554	5.672725092e-005	-6.571605809e-006	2.000703887e-007	1.379017613e-005	1.322874255e-006	1.0
[Spine]
14	66.67904663	-8.790089607	-2.70905166e-005	-0.8521289825	1.182114601	-6.759886265	1.0
15	66.67904663	-8.790267944	-2.70905166e-005	-2.635703087	4.190755367	-9.990623474	1.0
[Spine1]
14	120.7898407	-3.674251275e-006	5.73854777e-006	0.2225217819	2.588853121	-1.240098238	1.0
15	120.7898407	-3.674251275e-006	5.73854777e-006	-3.312427759	2.085816622	-0.6918854713	1.0
[Spine2]
14	97.34932709	-4.488672857e-005	3.778036216e-006	0.1316872835	2.574423075	-1.226552725	1.0
15	97.34932709	-4.488672857e-005	3.778036216e-006	-3.386548519	1.807486176	-0.7149020433	1.0
[LeftShoulder]
14	193.5426483	-57.9708252	-41.53356171	9.393886566	6.893609047	-6.516342163	1.0
15	193.5426483	-57.9708252	-41.53356171	9.243456841	5.606025696	-6.614139557	1.0
[LeftArm]
14	156.8790131	-1.300374424e-005	2.842262984e-005	27.26264763	-1.471982598	-49.87613297	1.0
15	156.8791504	7.352616649e-006	2.842262984e-005	26.45648193	-16.25832176	-54.13002396	1.0
[LeftForeArm]
14	274.6986084	0.003176066559	-0.0001052560838	-1.580042601	-4.386529922	-65.62801361	1.0
15	274.6987305	0.003060835879	-0.0001052560838	-1.563773155	-5.491057873	-58.86245728	1.0
[LeftForeArmRoll]
14	107.0116882	8.881784197e-014	2.842170943e-013	3.496213436	0	0	1.0
15	107.0116882	8.881784197e-014	2.842170943e-013	4.244091034	0	0	1.0
[LeftHand]
14	266.6985779	0.0001297467097	4.685075055e-006	4.370266914	-6.563220978	-2.382340431	1.0
15	266.6985779	-0.000106285268	4.685075055e-006	5.305114269	-13.75941467	4.636748314	1.0
[LeftHandThumb1]
14	31.59936905	-14.66598034	50.44494629	-0.01290040091	-13.856534	-3.613720179	1.0
15	31.59936905	-14.66598034	50.44494629	-0.01286304556	-13.85636902	-3.613147736	1.0
[LeftHandThumb2]
14	53.38054276	0.000103336497	0.0001156853396	-0.0002536315878	0.3000540137	0.001078326721	1.0
15	53.38054276	0.000103336497	0.0001156853396	-0.0002536315878	0.3000540137	-0.0009847410256	1.0
[LeftHandThumb3]
14	33.23007965	5.394171239e-005	-4.933813034e-005	-0.0004044212401	6.469938671e-005	-0.001377449837	1.0
15	33.23007965	5.394171239e-005	-4.933813034e-005	-0.0004044212401	0.0002093652438	0.0006594858132	1.0
[LeftHandThumb4]
14	41.64096832	4.604625792e-005	0.0002003078407	-0.0005963343428	0.0001761054446	-7.360037853e-005	1.0
15	41.64096832	4.604625792e-005	0.0002003078407	-0.0005963343428	0.0001761054446	-7.360037853e-005	1.0
[LeftHandIndex1]
14	107.8285828	-7.018170834	35.98754883	-5.758398765e-005	9.829888586e-005	-6.681241035	1.0
15	107.8285828	-7.018170834	35.98754883	-5.758398765e-005	9.829888586e-005	-6.681340218	1.0
[LeftHandIndex2]
14	41.10884857	5.474074715e-005	7.366939099e-005	-0.0001180831969	-0.02173396386	-6.72257185	1.0
15	41.10884857	5.474074715e-005	-4.623104178e-005	-0.0001180831969	-0.02173396386	-6.723278999	1.0
[LeftHandIndex3]
14	28.81001282	-6.260780356e-005	3.645908873e-005	-0.0001884985686	-0.02165595815	-6.720584869	1.0
15	28.81001282	-6.260780356e-005	3.645908873e-005	-0.0001884985686	-0.02186856978	-6.718781471	1.0
[LeftHandIndex4]
14	28.71860313	-4.528491991e-005	8.226938371e-005	-0.0005197712453	7.277534314e-005	0.0001651600323	1.0
15	28.71860313	-4.528491991e-005	8.226938371e-005	-0.0005197712453	7.277534314e-005	0.0001651600323	1.0
[LeftHandMiddle1]
14	108.9267883	-1.06894958	10.86118317	-0.0008985737804	-0.02305641957	-6.721274376	1.0
15	108.9267883	-1.06894958	10.86118317	-0.0008985737804	-0.02308218554	-6.721242905	1.0
[LeftHandMiddle2]
14	50.48878098	-2.162819874e-005	-5.554509244e-006	-0.0009549590177	-0.02308406867	-6.728913784	1.0
15	50.4887085	-2.162819874e-005	-5.554509244e-006	-0.0009549590177	-0.02308406867	-6.728997707	1.0
[LeftHandMiddle3]
14	33.42190552	-2.609414878e-005	7.530885341e-005	-0.001054303022	-0.02290574647	-6.72151041	1.0
15	33.42190552	-2.609414878e-005	7.530885341e-005	-0.001054303022	-0.02306470089	-6.721557617	1.0
[LeftHandMiddle4]
14	30.04674721	2.60834604e-005	1.565556158e-005	-0.0005761348875	-2.442478035e-005	0.0001658203546	1.0
15	30.04674721	2.60834604e-005	1.565556158e-005	-0.0005761348875	-2.442478035e-005	0.0001658203546	1.0
[LeftHandRing1]
14	109.0503845	-2.691740036	-12.87386799	-0.001201222069	-0.02290125191	-6.720985413	1.0
15	109.0503845	-2.691740036	-12.87386799	-0.001201222069	-0.02290125191	-6.721557617	1.0
[LeftHandRing2]
14	46.28148651	0.4491938949	-0.04898542166	-0.001470138668	-0.02505244501	-6.722150803	1.0
15	46.28149033	0.4491938949	-0.04898542166	-0.001470138668	-0.02505244501	-6.721352577	1.0
[LeftHandRing3]
14	29.52356529	-0.4491446018	0.04897363856	-0.001541288686	-0.02466645837	-6.722138405	1.0
15	29.52356529	-0.4491446018	0.04897363856	-0.001541288686	-0.0249872338	-6.721546173	1.0
[LeftHandRing4]
14	29.06702423	-8.604244795e-005	2.019225394e-005	-0.0005856125499	-1.556767347e-005	0.0001773452823	1.0
15	29.06702423	-8.604244795e-005	2.019225394e-005	-0.0005856125499	-1.556767347e-005	0.0001773452823	1.0
[LeftHandPinky1]
14	104.5423508	-10.75370884	-37.43105316	-0.002290672623	-0.02571227401	-6.721352577	1.0
15	104.5423508	-10.75370884	-37.43103409	-0.002290672623	-0.02583092637	-6.721270561	1.0
[LeftHandPinky2]
14	32.66359711	4.504872413e-005	-1.192557738e-005	-0.002319539664	-0.02607806399	-6.737626076	1.0
15	32.66348267	4.504872413e-005	-1.192557738e-005	-0.002319539664	-0.02607806399	-6.737550259	1.0
[LeftHandPinky3]
14	25.58556747	-0.0002099084086	6.552904779e-006	-0.002331972588	-0.02640791796	-6.72141552	1.0
15	25.58556747	-0.0002099084086	6.552904779e-006	-0.002331972588	-0.02620200627	-6.721663475	1.0
[LeftHandPinky4]
14	24.98874855	3.370519698e-005	2.254853462e-005	-0.0005195768899	8.110216731e-005	0.0001606175356	1.0
15	24.98874855	3.370519698e-005	2.254853462e-005	-0.0005195768899	8.110216731e-005	0.0001606175356	1.0
[LH_WP]
14	120	-50	-1.776356839e-014	0	0	0	1.0
15	120	-50	-1.776356839e-014	0	0	0	1.0
[LeftArmRoll]
14	132.8950806	0.0001548789442	-3.4160621e-005	-2.663570626e-007	-4.568414909e-007	4.582375823e-006	1.0
15	132.8950195	0.0001548789442	0.0001143701593	-2.663570626e-007	-4.568414909e-007	4.582375823e-006	1.0
[RightShoulder]
14	193.5422058	-57.97074127	41.53350449	14.96699524	-1.636781216	-18.26563835	1.0
15	193.5422058	-57.97074127	41.53350449	14.04901409	-1.126203299	-16.58838272	1.0
[RightArm]
14	-156.8792114	-0.001020917087	9.682989912e-005	10.51388931	4.047233582	-43.84111023	1.0
15	-156.8790588	-0.001020917087	9.682989912e-005	15.23532963	11.25740623	-48.01493835	1.0
[RightForeArm]
14	-274.6984253	-0.003865488805	5.878129014e-005	-1.6339252	2.677057266	-93.80387115	1.0
15	-274.6986389	-0.00380315911	5.878129014e-005	-1.625948191	0.8649148345	-73.99269867	1.0
[RightHand]
14	-266.6991577	-0.003095067106	0.0008086665184	2.591482639	-9.814545631	10.43458271	1.0
15	-266.6993103	-0.003114804858	0.0008768133703	7.421229362	-15.22162819	14.1787281	1.0
[RightHandThumb1]
14	-31.59879494	14.66024399	-50.44496155	-0.01171903126	-13.49955273	-2.857216358	1.0
15	-31.59879494	14.66024399	-50.44496155	-0.01165423635	-13.49967766	-2.857522488	1.0
[RightHandThumb2]
14	-53.38214111	-0.001516991644	-0.006656229496	0.0003864055034	-0.0002235676366	-0.001723493566	1.0
15	-53.38214111	-0.001608076389	-0.006656229496	0.0003864055034	-0.0002235676366	-0.0007868602406	1.0
[RightHandThumb3]
14	-33.22888565	-6.998400931e-005	0.005383281503	0.001325118588	-0.0004666688037	0.0004979440127	1.0
15	-33.22888565	-6.998400931e-005	0.005408909172	0.001325118588	-0.000417597621	-0.0002250555845	1.0
[RightHandThumb4]
14	-41.64128876	6.732883048e-005	-0.001961095491	0.001914707827	-0.0001924577227	-0.0005631271051	1.0
15	-41.64128876	6.732883048e-005	-0.001961095491	0.001914707827	-0.0001924577227	-0.0005631271051	1.0
[RightHandIndex1]
14	-107.8279266	7.018690109	-35.9875946	0.0003881388693	-0.02163384296	-6.721140862	1.0
15	-107.8279266	7.018690109	-35.9875946	0.0003881388693	-0.02163384296	-6.72164917	1.0
[RightHandIndex2]
14	-41.10917664	-0.003337909468	4.21212826e-005	0.0005543127772	-0.02149415016	-6.722893715	1.0
15	-41.10917664	-0.003337909468	4.21212826e-005	0.0005543127772	-0.02149415016	-6.721203804	1.0
[RightHandIndex3]
14	-28.810215	0.001759051112	-9.90186436e-006	0.001298090094	-0.02101843618	-6.720082283	1.0
15	-28.810215	0.001759051112	-9.90186436e-006	0.001298090094	-0.02099713311	-6.72171402	1.0
[RightHandIndex4]
14	-28.71785355	-0.003107428085	1.549930312e-005	0.00226092455	0.0006115095457	0.0002031581535	1.0
15	-28.71785355	-0.003107428085	1.549930312e-005	0.00226092455	0.0006115095457	0.0002031581535	1.0
[RightHandMiddle1]
14	-108.9268646	1.063620448	-10.86122894	0.0005381311639	-0.02275776118	-6.721650124	1.0
15	-108.9268646	1.063620448	-10.86122894	0.0005381311639	-0.02275776118	-6.721028805	1.0
[RightHandMiddle2]
14	-50.48844147	0.001322705648	-2.671446418e-005	0.0006534365821	-0.02252226323	-6.728335381	1.0
15	-50.48843384	0.001322705648	-2.671446418e-005	0.0006534365821	-0.02252226323	-6.729219437	1.0
[RightHandMiddle3]
14	-33.42206192	-0.003336391877	-3.798639591e-005	0.001414699247	-0.02191310748	-6.721948624	1.0
15	-33.42206192	-0.003336391877	-3.798639591e-005	0.001414699247	-0.02200449072	-6.72206831	1.0
[RightHandMiddle4]
14	-30.04626083	0.000816694228	5.615002738e-005	0.002405878855	0.00054273149	0.0001783560583	1.0
15	-30.04626083	0.000816694228	5.615002738e-005	0.002405878855	0.00054273149	0.0001783560583	1.0
[RightHandRing1]
14	-109.0495605	2.691092491	12.87384129	0.0005415810738	-0.02258249745	-6.721623898	1.0
15	-109.0495605	2.691092491	12.87384129	0.0005415810738	-0.02258249745	-6.721756458	1.0
[RightHandRing2]
14	-46.2803688	-0.4511589408	0.04896107689	0.0006064998452	-0.02426320314	-6.722812653	1.0
15	-46.2803688	-0.4511589408	0.04896107689	0.0006064998452	-0.02426320314	-6.72051239	1.0
[RightHandRing3]
14	-29.52510643	0.4504946172	-0.04901462793	0.001238655415	-0.02332194522	-6.718664169	1.0
15	-29.52510643	0.4504946172	-0.04901462793	0.001238655415	-0.02344402112	-6.72299099	1.0
[RightHandRing4]
14	-29.06623459	-0.005823877174	7.770192315e-005	0.002492689295	0.0005187573261	0.0001824576757	1.0
15	-29.06623459	-0.005823877174	7.770192315e-005	0.002492689295	0.0005187573261	0.0001824576757	1.0
[RightHandPinky1]
14	-104.5422821	10.74948311	37.43106461	0.0005379587528	-0.02511667274	-6.721970558	1.0
15	-104.5422745	10.74948311	37.43106461	0.0005379587528	-0.02511667274	-6.722071171	1.0
[RightHandPinky2]
14	-32.66365051	0.005212226883	-0.0001216184464	0.0007540693623	-0.02490916476	-6.73654604	1.0
15	-32.66365051	0.005212226883	-0.0001216184464	0.0007540693623	-0.02490916476	-6.736436844	1.0
[RightHandPinky3]
14	-25.58576584	-0.002913864329	9.440085705e-005	0.001331240055	-0.02433148213	-6.721868515	1.0
15	-25.58576584	-0.002913864329	9.440085705e-005	0.001331240055	-0.02403386682	-6.721925735	1.0
[RightHandPinky4]
14	-24.98809814	-0.004919932224	6.394286174e-006	0.002199850045	0.0006204504753	0.0001916140027	1.0
15	-24.98809814	-0.004919932224	6.394286174e-006	0.002199850045	0.0006204504753	0.0001916140027	1.0
[RH_WP]
14	-90.81784058	44.75069046	-9.102725983	-0.1271575838	-2.744757175	2.677313566	1.0
15	-90.81784058	44.75069046	-9.102725983	-0.1271575838	-2.744757175	2.677313566	1.0
[RightForeArmRoll]
14	-107.0118866	-0.003058596514	1.442765006e-005	2.073186398	0	0	1.0
15	-107.0118866	-0.003058596514	1.442765006e-005	5.936984062	0	0	1.0
[RightArmRoll]
14	-132.89534	0.0004744274192	1.935301407e-005	-2.260197107e-006	-2.431532664e-007	7.477638519e-006	1.0
15	-132.8954468	0.0004744274192	5.321573553e-005	-2.260197107e-006	-2.431532664e-007	7.477638519e-006	1.0
[Neck]
14	269.5569763	8.494591748e-005	2.551883517e-005	-0.4088007808	-2.419447899	1.124609828	1.0
15	269.5570068	8.494591748e-005	-5.644499197e-006	-0.1491179764	-2.155952454	2.204660177	1.0
[Neck1]
14	55.64798355	8.853046165e-005	1.173807505e-005	-0.6059256792	-2.53127718	1.088438272	1.0
15	55.64798355	8.853046165e-005	1.173807505e-005	-0.3818415701	-2.302442551	2.161993027	1.0
[Head]
14	48.27834702	4.024281952e-005	-1.697512198e-005	-3.225629807	-1.696101308	9.760910034	1.0
15	48.27834702	4.024281952e-005	-1.697512198e-005	-3.071358204	-3.565304756	10.36543751	1.0
[Jaw]
14	16.62527084	-28.49801064	-6.624434263e-007	0	0	0	1.0
15	16.62527084	-28.49801064	-6.624434263e-007	0	0	0	1.0
[L_Eye]
14	62.91468811	-92.7388916	-39.95373535	0	0	0	1.0
15	62.91468811	-92.7388916	-39.95373535	0	0	0	1.0
[R_Eye_Socket]
14	62.91468811	-92.7388916	39.94999695	0	0	0	1.0
15	62.91468811	-92.7388916	39.94999695	0	0	0	1.0
[L_Eye_Socket]
14	62.91468811	-92.7388916	-39.95373535	0	0	0	1.0
15	62.91468811	-92.7388916	-39.95373535	0	0	0	1.0
[R_Eye]
14	62.91468811	-92.7388916	39.94999695	0	0	0	1.0
15	62.91468811	-92.7388916	39.94999695	0	0	0	1.0
[BK_WEP1]
14	159.8800049	132.8500061	-1.533420634e-012	0	0	0	1.0
15	159.8800049	132.8500061	-1.533420634e-012	0	0	0	1.0
[RightUpLeg]
14	-47.72180176	-9.041695595	88.56551361	-23.89102554	-4.435796738	-2.932036877	1.0
15	-47.72180176	-9.041695595	88.56559753	-26.45103455	3.625074387	15.13207722	1.0
[RightLeg]
14	-428.6571045	7.562396149e-006	0.0004888930707	-7.336500168	3.272782564	-92.221138	1.0
15	-428.6571045	-5.486376904e-005	0.0004888930707	-9.958572388	-1.612874866	-116.2753525	1.0
[RightFoot]
14	-444.4207153	0.06059839949	1.31054306	0.4800759554	8.708692551	-31.03760529	1.0
15	-444.4186096	0.07476995885	1.602658272	4.121098518	12.90806198	-21.83378983	1.0
[RightToeBase]
14	-155.2784119	7.428698154e-006	-2.909067916e-005	0.3228012323	0.02636358514	-0.080316782	1.0
15	-155.2784119	7.428698154e-006	-2.909067916e-005	0.5165348649	0.0421352312	-0.1284381151	1.0
[RightToeEnd]
14	-87.17578125	-5.002963007e-005	-0.0004951364244	0	0	0	1.0
15	-87.17578125	-5.002963007e-005	-0.0004951364244	0	0	0	1.0
[RightLegRoll]
14	-198.5741882	-2.484767901e-005	-0.0004470431304	-6.48820734	0.305737406	-0.01411052886	1.0
15	-198.5740662	-2.484767901e-005	-0.0004470431304	-7.912993431	0.3738133609	-0.01742555574	1.0
[RightUpLegRoll]
14	-166.7200012	1.804171006e-005	-3.218563143e-005	1.387047269e-005	-1.121582272e-006	7.828991329e-006	1.0
15	-166.7201385	8.086885646e-005	-3.218563143e-005	1.387047269e-005	-1.121582272e-006	7.828991329e-006	1.0
[EndOfFile]
